<?xml version="1.0" encoding="UTF-8"?> <svg xmlns="http://www.w3.org/2000/svg" width="900pt" height="508pt" viewBox="0 0 900 508" version="1.1"><g id="#000000fe"><path fill="#000000" opacity="1.00" d=" M 523.73 104.24 C 549.81 104.66 575.91 104.24 602.00 104.41 C 605.34 104.56 608.79 103.90 612.07 104.72 C 635.77 119.65 659.02 135.32 682.66 150.34 C 688.44 154.48 694.71 157.92 700.34 162.29 C 648.32 162.69 596.28 162.38 544.25 162.45 C 538.41 170.05 533.71 178.47 528.30 186.39 C 526.62 188.54 525.80 191.70 523.28 192.99 C 523.06 166.66 523.22 140.32 523.11 113.99 C 523.12 110.73 522.88 107.42 523.73 104.24 Z"></path><path fill="#000000" opacity="1.00" d=" M 611.96 193.16 C 638.96 193.13 665.96 193.23 692.95 193.30 C 695.26 193.29 697.57 192.98 699.89 192.90 C 701.54 195.24 700.51 198.33 700.76 201.01 C 700.81 228.02 700.64 255.01 700.79 282.02 C 643.83 282.19 586.88 282.01 529.92 282.10 C 527.67 281.88 525.09 283.12 523.08 281.74 C 523.11 253.04 523.33 224.32 523.05 195.61 C 523.27 195.39 523.71 194.95 523.92 194.73 C 525.27 195.10 525.73 196.53 526.46 197.57 C 531.97 206.47 538.02 215.03 543.42 224.01 C 565.98 224.08 588.56 223.85 611.11 224.10 C 616.94 226.93 622.04 231.12 627.57 234.50 C 638.34 241.28 648.85 248.45 659.68 255.12 C 662.17 252.70 663.65 249.52 665.61 246.70 C 668.16 242.62 671.17 238.84 673.39 234.56 C 671.17 231.64 667.59 230.41 664.77 228.22 C 648.15 217.60 631.84 206.47 615.21 195.83 C 614.00 195.09 612.96 194.13 611.96 193.16 Z"></path><path fill="#000000" opacity="1.00" d=" M 363.23 274.10 C 370.43 273.99 377.64 273.84 384.83 274.18 C 384.87 304.79 384.83 335.39 384.85 366.00 C 384.83 368.87 385.03 371.75 384.67 374.61 C 377.59 375.22 370.44 374.81 363.34 374.77 C 363.22 341.21 363.43 307.65 363.23 274.10 Z"></path><path fill="#000000" opacity="1.00" d=" M 491.63 273.93 C 498.72 274.15 505.82 273.81 512.91 274.11 C 513.01 295.76 512.92 317.41 512.96 339.06 C 513.12 347.82 509.79 356.50 504.02 363.07 C 497.44 370.32 487.86 374.79 478.04 374.89 C 465.70 374.87 453.36 374.88 441.02 374.88 C 433.44 374.77 425.59 375.63 418.36 372.81 C 404.02 368.00 394.15 353.02 394.97 337.98 C 394.65 329.31 394.94 320.16 399.64 312.55 C 405.28 302.42 416.32 295.29 427.97 294.92 C 449.14 294.81 470.31 295.05 491.48 294.80 C 491.69 287.84 491.40 280.88 491.63 273.93 M 419.01 321.97 C 415.16 327.20 416.60 334.00 416.42 340.03 C 416.32 347.20 422.85 353.56 430.01 353.36 C 446.01 353.39 462.01 353.40 478.01 353.36 C 484.80 353.43 491.14 347.68 491.43 340.84 C 491.69 332.60 491.54 324.34 491.53 316.09 C 471.67 316.02 451.82 316.10 431.97 316.04 C 427.04 315.81 421.79 317.73 419.01 321.97 Z"></path><path fill="#000000" opacity="1.00" d=" M 105.84 328.98 C 105.65 311.29 121.30 295.09 139.03 294.90 C 156.04 294.90 173.06 294.90 190.07 294.90 C 207.32 295.08 222.68 310.27 223.46 327.45 C 223.72 337.97 223.49 348.50 223.56 359.02 C 223.49 366.74 224.25 374.83 221.09 382.11 C 216.14 395.00 202.92 404.43 189.01 404.21 C 170.03 404.23 151.06 404.28 132.09 404.17 C 132.06 397.09 132.04 390.01 132.09 382.93 C 150.74 382.95 169.39 382.96 188.04 382.94 C 193.49 383.14 198.65 379.76 201.00 374.90 C 180.98 374.86 160.97 374.87 140.95 374.90 C 134.68 374.84 128.39 373.24 123.01 369.99 C 113.97 364.82 107.75 355.27 106.09 345.05 C 105.61 339.70 105.94 334.33 105.84 328.98 M 136.15 317.03 C 130.50 319.02 126.67 325.01 127.03 330.96 C 127.31 336.03 126.11 341.55 128.71 346.20 C 131.03 350.68 135.99 353.52 141.02 353.37 C 161.38 353.37 181.76 353.42 202.12 353.33 C 202.01 345.21 202.17 337.09 202.06 328.97 C 201.88 321.79 195.04 315.98 188.04 316.08 C 174.02 316.03 160.00 316.09 145.99 316.05 C 142.70 316.08 139.27 315.74 136.15 317.03 Z"></path><path fill="#000000" opacity="1.00" d=" M 261.41 295.56 C 264.55 294.80 267.80 294.88 271.01 294.88 C 287.33 294.96 303.66 294.82 319.99 294.95 C 337.30 295.93 351.97 311.75 352.00 329.03 C 351.81 336.41 352.81 344.06 350.13 351.13 C 345.65 364.67 332.28 374.52 318.02 374.86 C 303.68 374.91 289.33 374.85 274.99 374.89 C 270.32 374.88 265.57 375.17 261.01 373.94 C 249.23 371.17 239.24 361.95 235.64 350.40 C 233.19 343.51 234.23 336.12 234.01 328.97 C 234.15 313.31 246.13 298.84 261.41 295.56 M 267.26 316.26 C 263.36 316.96 259.54 319.09 257.56 322.62 C 254.22 327.80 255.44 334.24 255.33 340.05 C 255.46 347.24 261.82 353.68 269.12 353.33 C 283.73 353.48 298.35 353.28 312.96 353.43 C 316.80 353.37 321.01 353.58 324.32 351.27 C 328.55 348.76 330.99 343.84 330.87 338.97 C 330.65 334.12 331.66 328.97 329.60 324.40 C 327.29 319.21 321.65 315.80 316.00 316.05 C 299.75 316.20 283.49 315.79 267.26 316.26 Z"></path><path fill="#000000" opacity="1.00" d=" M 523.38 295.25 C 530.52 295.03 537.66 295.07 544.80 295.21 C 544.95 321.73 544.95 348.26 544.81 374.78 C 537.67 374.94 530.52 374.97 523.39 374.75 C 523.36 348.25 523.38 321.75 523.38 295.25 Z"></path><path fill="#000000" opacity="1.00" d=" M 565.74 305.71 C 572.27 298.95 581.60 295.19 590.97 295.12 C 604.64 295.11 618.31 295.15 631.99 295.10 C 639.80 295.02 647.81 297.04 654.11 301.80 C 663.37 308.41 669.18 319.59 668.97 331.00 C 668.86 345.60 669.08 360.21 668.86 374.82 C 661.82 374.96 654.78 374.81 647.75 374.93 C 647.27 359.94 647.81 344.93 647.49 329.94 C 647.36 322.83 641.06 316.56 633.96 316.47 C 619.61 316.44 605.26 316.40 590.92 316.48 C 583.68 316.39 577.16 322.64 577.06 329.89 C 577.00 344.88 577.04 359.86 577.07 374.85 C 569.98 374.89 562.89 374.93 555.81 374.82 C 555.92 359.57 555.81 344.31 555.86 329.06 C 555.86 320.36 559.79 311.94 565.74 305.71 Z"></path><path fill="#000000" opacity="1.00" d=" M 683.68 312.61 C 689.62 301.88 701.68 294.54 714.04 294.88 C 730.69 294.94 747.35 294.86 764.00 294.92 C 779.22 295.35 792.95 307.34 796.14 322.11 C 797.29 326.65 797.01 331.36 797.03 336.00 C 797.02 347.00 797.02 358.01 797.03 369.02 C 797.13 377.03 794.13 384.92 789.21 391.20 C 782.75 399.34 772.47 404.38 762.05 404.23 C 743.21 404.19 724.37 404.30 705.53 404.17 C 705.63 397.10 705.64 390.02 705.52 382.94 C 724.39 382.94 743.26 382.97 762.13 382.93 C 767.41 382.96 772.14 379.54 774.42 374.89 C 754.26 374.87 734.10 374.87 713.94 374.89 C 702.43 374.80 691.15 368.66 684.92 358.98 C 680.11 352.01 678.58 343.36 679.03 335.02 C 678.66 327.32 679.73 319.36 683.68 312.61 M 700.66 328.07 C 700.35 332.67 700.31 337.34 700.75 341.94 C 701.52 348.74 708.25 353.80 714.97 353.40 C 735.22 353.25 755.48 353.59 775.73 353.23 C 775.46 345.19 775.78 337.15 775.60 329.11 C 775.20 322.13 769.01 316.26 762.03 316.11 C 746.36 315.99 730.69 316.10 715.02 316.06 C 708.15 315.81 701.37 321.08 700.66 328.07 Z"></path></g></svg> 