<?xml version="1.0" encoding="UTF-8"?>
<svg data-bbox="0 -0.01 196.67 58.01" viewBox="0 0 196.68 58.01" xmlns="http://www.w3.org/2000/svg" data-type="color">
    <g>
        <path d="M93.21 57.98h-12.9v-.39c0-2.3.03-4.59 0-6.88-.04-2.46-.06-4.93-.53-7.36-.34-1.74-.88-3.39-2.14-4.71-1.13-1.18-2.57-1.7-4.16-1.73-2.78-.05-5.56-.02-8.34-.03-.05 0-.1.01-.19.02v21.07c-.19.01-.34.03-.49.03h-12.6c-.51 0-.51 0-.51-.51V29.56c0-2.41.02-4.82.02-7.24 0-2.03-.02-4.06-.02-6.09 0-2.62.02-5.24.02-7.86 0-2.66 0-5.32-.01-7.98 0-.33.11-.39.4-.39h12.95c3.83 0 7.66-.02 11.49 0 2.91.02 5.77.41 8.48 1.56 2.99 1.26 5.35 3.24 6.92 6.1 1.26 2.29 1.83 4.77 1.96 7.36.15 2.89-.19 5.7-1.26 8.4-.77 1.94-1.85 3.67-3.38 5.11-.97.91-2.06 1.65-3.26 2.21-.1.04-.17.14-.25.21.08.07.15.17.25.2 2.47.78 4.07 2.51 5.18 4.76 1.23 2.5 1.8 5.18 2.05 7.92.15 1.64.21 3.29.24 4.94.06 2.86.06 5.72.09 8.57v.62ZM64.98 12.1v13.1c.15 0 .27.02.38.02h7.83c.65 0 1.31-.03 1.96-.14 1.74-.28 3.13-1.1 3.97-2.71.94-1.81 1.09-3.74.69-5.7-.36-1.77-1.41-3.04-3.04-3.82-1.06-.51-2.19-.74-3.35-.74-2.68-.02-5.35 0-8.03 0h-.42Z" fill="#333333" data-color="1"/>
        <path d="M148.63.01h48.04v57.46c0 .38-.07.51-.49.51-4.53-.02-9.05-.01-13.58 0-.27 0-.42-.09-.56-.32-1.39-2.44-2.79-4.87-4.2-7.3-1.04-1.8-2.1-3.58-3.14-5.37-1.29-2.22-2.58-4.45-3.87-6.68-1.13-1.95-2.27-3.91-3.4-5.86l-2.58-4.47c-1.21-2.09-2.43-4.17-3.65-6.26-1.04-1.78-2.06-3.57-3.1-5.36-1.29-2.23-2.59-4.45-3.88-6.67-.92-1.58-1.83-3.16-2.75-4.75-.88-1.52-1.77-3.05-2.66-4.57-.06-.1-.11-.2-.19-.36Z" fill="#333333" data-color="1"/>
        <path d="M29.84 34.13H13.5v23.85H0V.04h13.49v21.09h16.34V.03h13.53v57.94H29.85V34.12Z" fill="#333333" data-color="1"/>
        <path d="M173.08 58h-14.69c-.32 0-.47-.12-.6-.37-1.11-2.01-2.22-4.03-3.34-6.04-.68-1.23-1.37-2.47-2.06-3.7-.31-.56-.62-1.12-.92-1.68-.1-.19-.21-.29-.45-.29h-15.63c-.06 0-.13 0-.24.02v12.01H122.6V.5q0-.51.51-.51h16.38c.3 0 .46.09.61.36 1.66 2.93 3.33 5.85 5.01 8.78 1.21 2.11 2.43 4.2 3.64 6.31 1.13 1.97 2.25 3.95 3.37 5.92 1.15 2.02 2.32 4.03 3.47 6.05 1.04 1.81 2.07 3.63 3.11 5.45 1.66 2.91 3.33 5.83 5 8.73 1.36 2.38 2.74 4.75 4.1 7.13 1.68 2.93 3.36 5.87 5.03 8.8.08.13.14.27.24.47ZM135.3 16.3l-.1.03c0 .06-.03.12-.03.18v16.56c0 .32.14.36.4.36h9.09c.1 0 .19-.02.35-.05-3.26-5.73-6.48-11.4-9.71-17.08" fill="#333333" data-color="1"/>
        <path d="M101.28.03h13.49v57.93h-13.49z" fill="#333333" data-color="1"/>
    </g>
</svg>
